<svg width="1024" height="1024" viewBox="0 0 1024 1024" fill="none" xmlns="http://www.w3.org/2000/svg">
  <defs>
    <!-- Диагональный металлический градиент: светлый верх-левый угол → тёмный низ-правый -->
    <linearGradient id="metalGrad" x1="150" y1="120" x2="900" y2="900" gradientUnits="userSpaceOnUse">
      <stop offset="0" stop-color="#E4E8EA"/>
      <stop offset="0.35" stop-color="#B9BEC3"/>
      <stop offset="0.68" stop-color="#8B8F95"/>
      <stop offset="1" stop-color="#6E7278"/>
    </linearGradient>

    <!-- Мягкий блик сверху-слева -->
    <radialGradient id="metalHighlight" cx="0" cy="0" r="1" gradientUnits="userSpaceOnUse"
      gradientTransform="translate(330 260) rotate(45) scale(430 340)">
      <stop offset="0" stop-color="#FFFFFF" stop-opacity="0.55"/>
      <stop offset="1" stop-color="#FFFFFF" stop-opacity="0"/>
    </radialGradient>

    <!-- Зернистая текстура металла -->
    <filter id="metalNoise" x="-5%" y="-5%" width="110%" height="110%">
      <feTurbulence type="fractalNoise" baseFrequency="0.9" numOctaves="2" seed="7" stitchTiles="stitch" result="noise"/>
      <feColorMatrix in="noise" type="matrix"
        values="0 0 0 0 0  0 0 0 0 0  0 0 0 0 0  0 0 0 0.05 0" result="fadedNoise"/>
      <feComposite in="fadedNoise" in2="SourceGraphic" operator="over"/>
    </filter>

    <!-- Мягкая тень под пузырём сообщения -->
    <filter id="bubbleShadow" x="-30%" y="-30%" width="160%" height="180%">
      <feDropShadow dx="0" dy="14" stdDeviation="18" flood-color="#000000" flood-opacity="0.28"/>
    </filter>

    <clipPath id="squareClip">
      <rect x="119" y="128" width="788" height="788" rx="172" ry="172"/>
    </clipPath>
  </defs>

  <!-- Скруглённый квадрат: металлическая база -->
  <rect x="119" y="128" width="788" height="788" rx="172" ry="172" fill="url(#metalGrad)"/>

  <!-- Блик и шум применяются только внутри квадрата -->
  <g clip-path="url(#squareClip)">
    <rect x="119" y="128" width="788" height="788" fill="url(#metalHighlight)"/>
    <rect x="119" y="128" width="788" height="788" filter="url(#metalNoise)" opacity="0.5"/>
  </g>

  <!-- Тонкий бевел по краю квадрата -->
  <rect x="120.5" y="129.5" width="785" height="785" rx="170.5" ry="170.5"
    fill="none" stroke="#4B4E53" stroke-opacity="0.35" stroke-width="1.5"/>
  <rect x="122.5" y="131.5" width="781" height="781" rx="168.5" ry="168.5"
    fill="none" stroke="#FFFFFF" stroke-opacity="0.25" stroke-width="1.5"/>

  <!-- Пузырь сообщения с хвостиком (единая заливка) -->
  <g filter="url(#bubbleShadow)">
    <path d="M600,636
             C606,672 630,712 665,732
             C678,740 689,744 695,740
             C701,734 703,716 703,672
             C703,652 700,636 691,624
             C662,612 622,615 600,636
             Z" fill="#FFFFFF"/>
    <ellipse cx="512" cy="502" rx="245" ry="218" fill="#FFFFFF"/>
  </g>

  <!-- Буква "I" засечковая, зелёная -->
  <g fill="#3FCE69">
    <rect x="456" y="393" width="111" height="29" rx="7"/>
    <rect x="456" y="586" width="111" height="29" rx="7"/>
    <rect x="491" y="405" width="41" height="212"/>
  </g>
</svg>
